<svg id="Capa_1" enable-background="new 0 0 511.998 511.998" height="512" viewBox="0 0 511.998 511.998" width="512" xmlns="http://www.w3.org/2000/svg"><g><path d="m346.998 90.999c-33.608 0-64.896 10.109-90.999 27.434-26.103-17.325-57.391-27.434-90.999-27.434-90.982 0-165 74.019-165 165s74.019 165 165 165c33.608 0 64.896-10.109 90.999-27.434 26.103 17.324 57.391 27.434 90.999 27.434 90.982 0 165-74.019 165-165s-74.018-165-165-165zm-181.998 300c-74.44 0-135-60.561-135-135s60.561-135 135-135c24.092 0 46.726 6.351 66.329 17.455-30.43 29.949-49.331 71.578-49.331 117.545s18.901 87.596 49.331 117.545c-19.602 11.104-42.237 17.455-66.329 17.455zm112.19-210.006h-42.383c6.062-9.038 13.185-17.307 21.191-24.625 8.007 7.319 15.13 15.587 21.192 24.625zm-21.191 174.637c-8.006-7.318-15.129-15.587-21.191-24.625h42.383c-6.063 9.038-13.186 17.307-21.192 24.625zm36.277-54.625h-72.555c-3.39-9.557-5.73-19.604-6.886-30.006h86.326c-1.154 10.401-3.495 20.449-6.885 30.006zm6.886-60.006h-86.326c1.155-10.401 3.496-20.449 6.886-30.006h72.555c3.389 9.557 5.73 19.605 6.885 30.006zm47.836 150c-24.092 0-46.727-6.351-66.329-17.455 30.43-29.949 49.331-71.578 49.331-117.545s-18.901-87.596-49.331-117.545c19.603-11.105 42.237-17.455 66.329-17.455 74.439 0 135 60.561 135 135s-60.56 135-135 135z"/></g></svg>