<?xml version="1.0" encoding="utf-8"?>
<!-- Generator: Adobe Illustrator 25.2.1, SVG Export Plug-In . SVG Version: 6.00 Build 0)  -->
<svg version="1.1" id="Layer_1" xmlns="http://www.w3.org/2000/svg" xmlns:xlink="http://www.w3.org/1999/xlink" x="0px" y="0px"
	 viewBox="0 0 512 512" style="enable-background:new 0 0 512 512;" xml:space="preserve">
<style type="text/css">
	.st0{fill:#FFFFFF;}
</style>
<path class="st0" d="M337.4,474.5H174.6c-23.2-0.1-42.5-18-44.3-41.2L109,136.5H403l-0.3,3.7l-21.2,293.1
	C379.9,456.4,360.6,474.4,337.4,474.5L337.4,474.5z M137.2,432.8c1.5,19.6,17.8,34.8,37.5,34.8h162.7c19.7-0.1,36-15.2,37.5-34.8
	l20.9-289.4H116.3L137.2,432.8z"/>
<path class="st0" d="M314,85.3H198V54.6c0-9.4,7.6-17.1,17.1-17.1H297c9.4,0,17.1,7.6,17.1,17.1V85.3z M204.8,78.5h102.4V54.6
	c0-5.7-4.6-10.2-10.2-10.2H215c-5.7,0-10.2,4.6-10.2,10.2V78.5z"/>
<path class="st0" d="M409.6,143.4H102.4c-9.4,0-17.1-7.6-17.1-17.1V95.6c0-9.4,7.6-17.1,17.1-17.1h307.2c9.4,0,17.1,7.6,17.1,17.1
	v30.7C426.7,135.7,419,143.3,409.6,143.4z M102.4,85.3c-5.7,0-10.2,4.6-10.2,10.2v30.7c0,5.7,4.6,10.2,10.2,10.2h307.2
	c5.7,0,10.2-4.6,10.2-10.2V95.6c0-5.7-4.6-10.2-10.2-10.2H102.4z"/>
<path class="st0" d="M191.1,407.9c-1.9,0-3.4-1.5-3.4-3.4v-198c0-1.9,1.5-3.4,3.4-3.4s3.4,1.5,3.4,3.4v198
	C194.6,406.4,193,407.9,191.1,407.9z"/>
<path class="st0" d="M256,407.9c-1.9,0-3.4-1.5-3.4-3.4v-198c0-1.9,1.5-3.4,3.4-3.4c1.9,0,3.4,1.5,3.4,3.4v198
	C259.4,406.4,257.9,407.9,256,407.9z"/>
<path class="st0" d="M320.9,407.9c-1.9,0-3.4-1.5-3.4-3.4v-198c0-1.9,1.5-3.4,3.4-3.4s3.4,1.5,3.4,3.4v198
	C324.3,406.4,322.7,407.9,320.9,407.9z"/>
</svg>
