<?xml version="1.0" encoding="utf-8"?>
<!-- Generator: Adobe Illustrator 25.2.1, SVG Export Plug-In . SVG Version: 6.00 Build 0)  -->
<svg version="1.1" id="Layer_1" xmlns="http://www.w3.org/2000/svg" xmlns:xlink="http://www.w3.org/1999/xlink" x="0px" y="0px"
	 viewBox="0 0 480 480" style="enable-background:new 0 0 480 480;" xml:space="preserve">
<style type="text/css">
	.st0{fill:#FFFFFF;stroke:#FFFFFF;stroke-width:18;stroke-miterlimit:10;}
</style>
<path class="st0" d="M340.8,34.7c-40.1,0.1-77.7,19.6-100.8,52.5c-23.1-32.9-60.7-52.4-100.8-52.5C73.6,34.7,16,95.7,16,165.3
	c0,67.9,38.3,137.7,110.8,202.1c33.6,29.8,70.4,55.6,109.8,77.1c2.1,1.1,4.7,1.1,6.8,0c39.4-21.5,76.2-47.3,109.8-77.1
	C425.7,303,464,233.2,464,165.3C464,95.7,406.4,34.7,340.8,34.7z M240,429.4c-27.4-15.1-209.1-120.9-209.1-264
	c0-61.7,50.6-115.7,108.3-115.7c39.1,0.1,75.1,21.2,94.3,55.2c1.4,2.2,3.9,3.5,6.5,3.5s5-1.3,6.5-3.5c19.2-34.1,55.3-55.2,94.3-55.2
	c57.7,0,108.3,54,108.3,115.7C449.1,308.5,267.4,414.3,240,429.4z"/>
</svg>
