<?xml version="1.0" encoding="utf-8"?>
<!-- Generator: Adobe Illustrator 25.2.1, SVG Export Plug-In . SVG Version: 6.00 Build 0)  -->
<svg version="1.1" id="Capa_1" xmlns="http://www.w3.org/2000/svg" xmlns:xlink="http://www.w3.org/1999/xlink" x="0px" y="0px"
	 viewBox="0 0 399.4 399.4" style="enable-background:new 0 0 399.4 399.4;" xml:space="preserve">
<style type="text/css">
	.st0{fill:#FFFFFF;}
</style>
<g>
	<path class="st0" d="M340.9,58.5C303.2,20.8,253,0,199.7,0C146.4,0,96.2,20.8,58.5,58.5S0,146.4,0,199.7
		C0,253,20.8,303.2,58.5,340.9c37.7,37.7,87.9,58.5,141.2,58.5c53.3,0,103.5-20.8,141.2-58.5c37.7-37.7,58.5-87.9,58.5-141.2
		C399.4,146.4,378.6,96.2,340.9,58.5z M321.9,199.7c0,67.4-54.8,122.2-122.2,122.2S77.5,267.1,77.5,199.7S132.3,77.5,199.7,77.5
		S321.9,132.3,321.9,199.7z M328.1,71.3c3.4,3.4,6.6,6.8,9.6,10.4L308.4,111c-25.8-31.5-64.9-51.7-108.7-51.7
		c-4.6,0-9.1,0.2-13.6,0.7V18.7c4.5-0.3,9-0.5,13.6-0.5C248.2,18.2,293.8,37,328.1,71.3z"/>
</g>
</svg>
