<svg xmlns="http://www.w3.org/2000/svg" width="30.215" height="26.858" viewBox="0 0 30.215 26.858"><defs><style>.a{fill:#777;}</style></defs><path class="a" d="M27.7,15.806,30.183,4.9a1.259,1.259,0,0,0-1.228-1.538H8.352L7.871,1.007A1.259,1.259,0,0,0,6.637,0H1.259A1.259,1.259,0,0,0,0,1.259V2.1A1.259,1.259,0,0,0,1.259,3.357H4.925L8.61,21.373a2.938,2.938,0,1,0,3.517.449h11a2.937,2.937,0,1,0,3.336-.546L26.75,20a1.259,1.259,0,0,0-1.228-1.538H11.442L11.1,16.786H26.476A1.259,1.259,0,0,0,27.7,15.806Z"/></svg>